# xmcd
#
# Track frame offsets:
#	150
#	10938
#	28415
#	51777
#	70254
#	89418
#	110613
#	130438
#	151935
#	174583
#	194288
#	219234
#
# Disc length: 3238 seconds
#
# Revision: 0
# Processed by: cddbd v1.5.2PL0 Copyright (c) Steve Scherf et al.
# Submitted via: EasyCDDAExtractor 2010.4.0.0
#
DISCID=a70ca40c
DTITLE=DavidGray - Sell, Sell, Sell
DYEAR=1996
DGENRE=Folk/Rock
TTITLE0=Faster, Sooner, Now
TTITLE1=Late Night Radio
TTITLE2=Sell, Sell, Sell
TTITLE3=Smile
TTITLE4=Hold On To Nothing 
TTITLE5=Everytime
TTITLE6=Magdalena
TTITLE7=Only The Lonely 
TTITLE8=What Am I Doing Wrong
TTITLE9=Gutters Full Of Rain 
TTITLE10=Forever Is Tomorrow  
TTITLE11=Folksong(1996,DavidGray,Wales,UK)
EXTD=more info - MillenniumMusicProjectFormat - SYNTAX=SongTitle{Subtitle}[misc
EXTD=Info](Lyricist;Composer;Date,Artist,Location,State,Country]\n
EXTT0=
EXTT1=
EXTT2=
EXTT3=
EXTT4=
EXTT5=
EXTT6=
EXTT7=
EXTT8=
EXTT9=
EXTT10=
EXTT11=
PLAYORDER=
